Last 58km.
Commentary in spanish.

Duration: 01:50:07.00, start: 0.000000, bitrate: 1605 kb/s
    Stream #0.0(und): Video: h264 (Main), yuv420p, 1280x720 [PAR 1:1 DAR 16:9], 1502 kb/s, 25 fps, 25 tbr, 25 tbn, 50 tbc
    Stream #0.1(und): Audio: mp3, 44100 Hz, stereo, s16, 95 kb/s
